<svg width="301" height="300" viewBox="0 0 301 300" fill="none" xmlns="http://www.w3.org/2000/svg">
<rect width="301" height="300" fill="#262626"/>
<path d="M90.1325 51.5265L35.7542 227.855C34.7624 231.071 37.1668 234.328 40.5321 234.328H65.7553C67.9299 234.328 69.8552 232.923 70.5176 230.851L128.996 48H94.9104C92.7166 48 90.779 49.4301 90.1325 51.5265Z" fill="white"/>
<path d="M218 143.5L228.44 143.047C244.735 142.34 258.332 155.36 258.332 171.67V182.193C258.332 204.079 239.841 221.413 218 220" stroke="white" stroke-width="32"/>
<path d="M188.988 230.474L189.5 133.5L218.355 128V235.5H193.987C191.216 235.5 188.973 233.245 188.988 230.474Z" fill="white" stroke="white"/>
<path d="M193.254 132.375L26.1149 162.437C23.7331 162.865 22 164.938 22 167.358V197.87C22 200.989 24.8244 203.347 27.8933 202.789L194.84 172.476L193.254 132.375Z" fill="white"/>
<path d="M132.471 51.6252L185.862 230.24C186.821 233.447 184.419 236.672 181.072 236.672H155.798C153.618 236.672 151.69 235.26 151.032 233.182L92.5469 48.5933L127.604 48.0578C129.842 48.0236 131.83 49.4808 132.471 51.6252Z" fill="white" stroke="white"/>
</svg>
