<svg width="300" height="300" viewBox="0 0 300 300" fill="none" xmlns="http://www.w3.org/2000/svg">
<path d="M0 25C0 11.1929 11.1929 0 25 0H275C288.807 0 300 11.1929 300 25V275C300 288.807 288.807 300 275 300H25C11.1929 300 0 288.807 0 275V25Z" fill="black"/>
<path d="M94.1325 59.5265L39.7542 235.855C38.7624 239.071 41.1668 242.328 44.5321 242.328H69.7553C71.9299 242.328 73.8552 240.923 74.5176 238.851L132.996 56H98.9104C96.7166 56 94.779 57.4301 94.1325 59.5265Z" fill="white"/>
<path d="M222 151.5L232.44 151.047C248.735 150.34 262.332 163.36 262.332 179.67V190.193C262.332 212.079 243.841 229.413 222 228" stroke="white" stroke-width="32"/>
<path d="M192.988 238.474L193.5 141.5L222.355 136V243.5H197.987C195.216 243.5 192.973 241.245 192.988 238.474Z" fill="white" stroke="white"/>
<path d="M197.254 140.375L30.1149 170.437C27.7331 170.865 26 172.938 26 175.358V205.87C26 208.989 28.8244 211.347 31.8933 210.789L198.84 180.476L197.254 140.375Z" fill="white"/>
<path d="M136.471 59.6252L189.862 238.24C190.821 241.447 188.419 244.672 185.072 244.672H159.798C157.618 244.672 155.69 243.26 155.032 241.182L96.5469 56.5933L131.604 56.0578C133.842 56.0236 135.83 57.4808 136.471 59.6252Z" fill="white" stroke="white"/>
</svg>
